PathFileType	4	(X/Y/Z)	Run_300 02
DataRate	CameraRate	NumFrames	NumMarkers	Units	OrigDataRate	OrigDataStartFrame	OrigNumFrames
120	120	8	42	mm	120	27	128
Frame#	Time	LASI			RASI			LPSI			RPSI			RTH1			RTH2			RTH3			LTH1			LTH2			LTH3			RTB1			RTB2			LTB1			LTB2			LTB3			RCAL			RTOE			RMT5			LCAL			LTOE			LMT5			LACR			RACR			CLAV			C7			RUA1			RUA2			RUA3			RLEL			RMEL			LUA1			LUA2			LUA3			LLEL			LMEL			RFAsuperior			RFAradius			RFAulna			LFAsuperior			LFAradius			LFAulna			RTB3			
		X1	Y1	Z1	X2	Y2	Z2	X3	Y3	Z3	X4	Y4	Z4	X5	Y5	Z5	X6	Y6	Z6	X7	Y7	Z7	X8	Y8	Z8	X9	Y9	Z9	X10	Y10	Z10	X11	Y11	Z11	X12	Y12	Z12	X13	Y13	Z13	X14	Y14	Z14	X15	Y15	Z15	X16	Y16	Z16	X17	Y17	Z17	X18	Y18	Z18	X19	Y19	Z19	X20	Y20	Z20	X21	Y21	Z21	X22	Y22	Z22	X23	Y23	Z23	X24	Y24	Z24	X25	Y25	Z25	X26	Y26	Z26	X27	Y27	Z27	X28	Y28	Z28	X29	Y29	Z29	X30	Y30	Z30	X31	Y31	Z31	X32	Y32	Z32	X33	Y33	Z33	X34	Y34	Z34	X35	Y35	Z35	X36	Y36	Z36	X37	Y37	Z37	X38	Y38	Z38	X39	Y39	Z39	X40	Y40	Z40	X41	Y41	Z41	X42	Y42	Z42	

1	1.133333	918.157809	1090.273803	-453.519739	911.53999	1096.296227	-196.860213	739.970854	1139.598425	-365.968957	734.975228	1129.015926	-281.696789	879.489188	922.529294	-139.786439	969.518868	834.2900059999999	-144.798858	946.951491	712.385808	-191.706712	786.812693	886.760518	-494.677298	792.5601349999999	752.81439	-473.483363	687.688626	673.634907	-446.892358	1105.528395	452.923138	-273.597768	1095.471372	382.414107	-204.34845	590.411082	454.485884	-380.127479	496.515855	429.475419	-423.42622	420.623516	344.879823	-355.642209	1050.130986	104.716577	-295.827006	1279.893738	154.038188	-307.071135	1224.756365	99.312662	-223.94316	269.382311	365.979836	-322.731457	333.098516	141.395712	-331.304304	271.662317	201.254265	-406.434494	953.856918	1571.76966	-471.466343	871.6285789999999	1574.227142	-144.838313	950.641118	1517.726398	-262.584967	839.5430249999999	1599.588556	-325.254246	794.764132	1511.588969	-76.853127	754.222854	1428.267804	-80.756899	682.838243	1463.653775	-90.74251700000001	584.162564	1360.660182	-54.930796	586.320998	1352.767323	-136.763979	949.112847	1483.125648	-548.148016	952.968911	1410.997685	-540.556367	858.263924	1402.770355	-567.024713	861.824133	1237.760452	-618.92129	795.693834	1231.363167	-557.14405	658.538004	1286.65691	-30.371358	791.847939	1168.841838	-78.72439799999999	746.4526049999999	1140.241284	-29.580619	945.784478	1250.076821	-566.638954	1034.638034	1299.485482	-417.018317	1059.762674	1231.661451	-433.997745	1125.701106	287.924472	-277.617861	
2	1.141667	918.546963	1087.089107	-452.853415	910.734149	1093.530349	-196.294449	739.836554	1134.609013	-366.549315	734.470336	1124.579068	-282.408633	878.379552	919.164187	-139.638396	969.765472	831.930876	-146.475374	945.815208	708.763837	-192.215554	793.1844599999999	879.963936	-493.601688	801.678017	746.220174	-471.151691	698.166073	664.670619	-447.250592	1100.128892	447.05382	-275.353604	1090.058598	376.920744	-206.212379	597.4115880000001	450.123795	-379.673255	502.74809	429.868586	-423.691839	421.295138	350.777057	-355.926199	1038.237401	100.88012	-297.993643	1269.218162	143.56378	-308.917058	1212.30873	90.42641500000001	-226.398308	269.930016	379.900395	-324.119999	324.840488	153.065356	-333.826032	266.680038	216.051454	-409.139997	953.979436	1567.510313	-471.118123	873.045103	1569.024756	-144.002682	950.959132	1512.916896	-262.456944	839.801388	1595.45298	-324.353723	797.556325	1504.783263	-74.747147	758.111392	1420.867893	-78.459818	686.14616	1455.347055	-86.25192199999999	589.483457	1351.506813	-48.970052	590.315144	1343.201715	-130.836297	948.722072	1478.942107	-547.763002	951.524003	1406.789185	-540.386365	856.532786	1400.146648	-566.817995	857.80652	1235.154206	-619.263191	791.808586	1229.513224	-557.534674	665.568687	1278.844785	-25.241456	799.859671	1163.159075	-75.08478700000001	755.975781	1134.191231	-24.789852	941.896453	1245.414952	-566.892395	1032.156194	1291.699208	-416.902631	1055.576877	1223.442097	-434.397637	1117.389999	281.866504	-279.547882	
3	1.15	918.81629	1083.05778	-452.247394	909.9258	1090.238021	-195.694175	739.6484359999999	1128.479146	-367.19291	734.00707	1119.236836	-283.161	877.952999	915.641948	-140.379766	970.772695	829.717236	-150.096372	944.469264	704.338509	-192.443443	799.872684	872.574178	-492.718999	811.1148439999999	739.231371	-469.445728	709.224512	655.282496	-447.721287	1093.595267	439.791351	-276.928845	1082.988606	370.001259	-207.940609	605.68709	445.42438	-379.615133	510.608221	429.911289	-424.320557	423.978345	356.410726	-356.65343	1023.846174	97.95146	-299.903049	1255.47978	130.564646	-312.160535	1197.100711	79.80085800000001	-229.228948	273.339045	393.72694	-326.192437	318.200934	164.742357	-335.976615	263.7648	230.573462	-411.830265	953.8976259999999	1562.393556	-470.854665	874.621833	1563.005156	-143.298874	951.258746	1507.27022	-262.359705	839.997285	1590.606746	-323.43474	800.694627	1497.157139	-72.54585299999999	762.405151	1412.668773	-75.936786	689.924141	1446.052074	-81.26946700000001	595.426463	1341.348843	-42.508782	594.767795	1332.645272	-124.392504	947.960799	1473.884607	-547.502611	949.746766	1401.756359	-540.319119	854.603288	1396.616653	-566.739549	853.547262	1231.724688	-619.683328	787.627959	1226.82535	-557.980778	673.250555	1270.117775	-19.762324	808.587321	1156.804777	-71.273506	766.216672	1127.324169	-19.998228	937.766184	1239.818522	-567.284483	1029.584303	1282.77041	-417.081334	1051.220034	1214.26117	-435.330452	1107.336503	274.348	-281.143852	
4	1.158333	919.025171	1078.139646	-451.790136	909.219517	1086.385275	-195.037189	739.376634	1121.310899	-367.845558	733.604635	1113.000024	-283.938879	878.2549729999999	911.638241	-141.416691	971.702288	826.781189	-154.480358	942.690207	698.991256	-192.420671	806.657723	864.629727	-492.104758	820.690201	731.784615	-468.497459	720.736843	645.541817	-448.441903	1086.39959	431.526784	-278.43362	1074.534211	361.806364	-209.971246	615.045964	440.334637	-380.034232	519.8263459999999	429.563514	-425.268556	428.552582	361.614127	-357.835143	1007.352679	96.44588899999999	-301.803659	1239.238968	115.385442	-316.583874	1179.349917	68.88688	-231.802442	279.335795	407.073995	-328.798291	313.45275	176.272225	-337.789191	263.028945	244.535144	-414.535642	953.59115	1556.440357	-470.681033	876.322297	1556.167827	-142.709441	951.5801719999999	1500.789718	-262.267071	840.0472130000001	1585.077549	-322.508275	804.130171	1488.788981	-70.328926	767.056599	1403.762191	-73.19094699999999	694.133451	1435.884715	-75.901089	601.972861	1330.239119	-35.621203	599.665893	1321.139865	-117.512065	946.743388	1468.062181	-547.485684	947.649306	1395.974356	-540.428121	852.446499	1392.189012	-566.759462	849.055689	1227.474749	-620.175582	783.12168	1223.296462	-558.437593	681.54185	1260.548967	-13.979718	817.98988	1149.820983	-67.337416	777.1256980000001	1119.699843	-15.240538	933.409622	1233.313702	-567.865132	1026.905562	1272.71064	-417.586166	1046.654125	1204.061921	-436.680689	1095.951046	265.608733	-282.945309	
5	1.166667	919.195056	1072.305212	-451.534922	908.49481	1081.948607	-194.223139	738.89584	1113.242776	-368.432563	733.038916	1106.010878	-284.674965	878.930913	907.037716	-141.995245	971.602665	822.666754	-157.865688	940.472808	693.126785	-192.417826	813.222499	856.097622	-491.719831	830.233211	723.784494	-468.224717	732.600184	635.384052	-449.418764	1079.251121	423.333563	-280.148362	1065.454819	353.264303	-212.795398	625.3621450000001	434.781995	-380.805475	530.179594	428.780311	-426.502268	434.864581	366.218824	-359.433406	988.817884	96.314004	-303.861227	1220.829313	100.036129	-321.782256	1159.301542	59.700433	-233.726823	287.602521	419.640837	-331.754109	310.936136	187.514712	-339.402994	264.544461	257.718037	-417.194082	953.078167	1549.700784	-470.615996	878.140506	1548.5798	-142.093161	951.995149	1493.490567	-262.171782	839.8315260000001	1578.940767	-321.566236	807.794745	1479.770807	-68.13818999999999	772.056993	1394.224957	-70.17525500000001	698.726737	1424.959636	-70.272355	609.1141229999999	1318.232451	-28.365174	604.935417	1308.754835	-110.220877	945.056101	1461.578614	-547.789086	945.268418	1389.485562	-540.7736599999999	850.022975	1386.902391	-566.839716	844.339506	1222.427514	-620.710504	778.400359	1218.944246	-558.875748	690.422895	1250.202571	-7.946963	828.015461	1142.243102	-63.345534	788.6641	1111.394456	-10.548787	928.8256699999999	1225.939122	-568.667623	1024.098633	1261.544083	-418.403987	1041.829788	1192.731816	-438.248316	1083.571175	256.633076	-285.639032	
6	1.175	919.258168	1065.546533	-451.41268	907.390895	1076.916885	-193.120644	737.984944	1104.44103	-368.88182	731.902036	1098.50368	-285.286225	879.255028	902.111769	-141.656155	969.942311	817.658012	-158.90492	938.080072	687.604465	-192.625644	819.27203	846.938285	-491.378088	839.58135	715.232083	-468.392604	744.7225539999999	624.751185	-450.468757	1072.685904	416.613884	-282.331573	1056.684895	345.946125	-216.449039	636.673437	428.88653	-381.588867	541.5927380000001	427.528094	-427.961124	442.821499	370.122184	-361.368413	968.225425	97.086184	-306.00679	1200.398976	87.45881799999999	-327.145072	1137.355354	53.855125	-235.053288	297.924578	431.215872	-334.895644	310.972479	198.300041	-341.003023	268.335928	269.94581	-419.662242	952.39559	1542.272356	-470.715462	880.073001	1540.39513	-141.254669	952.568485	1485.490108	-262.111519	839.260982	1572.349214	-320.579065	811.610781	1470.178414	-65.941992	777.406506	1384.111986	-66.84338	703.6552380000001	1413.352954	-64.51254900000001	616.845046	1305.385555	-20.797041	610.4787669999999	1295.575742	-102.517661	942.9490489999999	1454.477562	-548.4038420000001	942.626623	1382.292597	-541.3631329999999	847.309696	1380.799349	-566.951491	839.411012	1216.637816	-621.2369629999999	773.61311	1213.824752	-559.279322	699.888244	1239.128443	-1.729768	838.60595	1134.103923	-59.38671	800.797151	1102.485988	-5.957229	924.015704	1217.742492	-569.656126	1021.157189	1249.293247	-419.497519	1036.737356	1180.211114	-439.911101	1070.469156	249.043948	-289.382453	
7	1.183333	919.013418	1057.942096	-451.235196	905.494417	1071.368445	-191.713538	736.3924950000001	1095.161252	-369.175799	729.820774	1090.728812	-285.787327	878.401091	897.375038	-140.497467	966.939045	812.634958	-157.481419	935.894987	683.229359	-192.894465	824.693103	837.291837	-490.862393	848.609	706.379565	-468.748623	757.017143	613.75854	-451.273437	1066.689588	412.315942	-284.946579	1048.718515	341.278385	-220.260696	649.171972	423.121054	-382.023304	554.14998	425.824171	-429.513037	452.448507	373.341405	-363.513227	945.8421949999999	98.25131500000001	-307.970488	1178.224287	79.603399	-331.863629	1114.064419	51.57702	-236.06953	310.210683	441.640271	-338.117246	313.811531	208.41073	-342.738679	274.45859	281.051845	-421.841966	951.537062	1534.329078	-471.102342	882.038466	1531.859615	-140.079919	953.2952770000001	1477.115545	-262.177488	838.385382	1565.558276	-319.495619	815.535266	1460.009872	-63.63319	783.052869	1373.438067	-63.286152	708.870929	1401.078316	-58.711372	625.163121	1291.759139	-13.000016	616.290876	1281.670217	-94.442716	940.501068	1446.721378	-549.23923	939.702424	1374.37824	-542.118953	844.316357	1373.911742	-567.100025	834.290513	1210.205058	-621.7131440000001	768.827693	1208.044097	-559.632854	709.921203	1227.360438	4.597794	849.71214	1125.424728	-55.537521	813.490453	1093.024411	-1.504356	919.0242019999999	1208.782521	-570.7487640000001	1018.097766	1235.95486	-420.827796	1031.419034	1166.549326	-441.704192	1056.879989	244.307232	-293.455983	
8	1.191667	918.159085	1049.751571	-450.83881	902.619735	1065.588311	-190.206438	733.974727	1085.834768	-369.413282	726.690506	1082.936832	-286.3784	875.848603	893.217022	-139.06514	963.320344	808.479921	-154.688612	934.06341	680.148099	-192.878816	829.586738	827.6475380000001	-490.106326	857.27826	697.799358	-469.146391	769.406012	602.8080200000001	-451.537434	1060.688234	410.269895	-287.526702	1041.177612	339.548759	-223.177663	663.0664389999999	418.233702	-382.009528	568.020206	423.769746	-430.985132	463.86277	376.001596	-365.702721	922.310885	99.495836	-309.449521	1154.892798	76.154286	-335.191332	1090.019392	51.624566	-236.927074	324.373321	450.778489	-341.373653	319.618491	217.593017	-344.663846	283.070412	290.86323	-423.818498	950.393356	1526.145933	-471.950576	883.8106780000001	1523.298741	-138.635706	954.071745	1468.911022	-262.468387	837.460545	1558.912852	-318.267634	819.612151	1449.162745	-61.103663	788.86082	1362.186867	-59.824201	714.337563	1388.117715	-52.868782	634.088418	1277.4278	-5.10101	622.555564	1267.061322	-86.117981	937.782239	1438.258261	-550.161609	936.433203	1365.776329	-542.87686	841.077142	1366.302302	-567.338175	828.999538	1203.286997	-622.134513	764.008492	1201.762062	-559.914756	720.486337	1214.926065	10.965067	861.311987	1116.197211	-51.831527	826.717802	1083.018632	2.769126	913.9451759999999	1199.125827	-571.90845	1014.938218	1221.498395	-422.352626	1025.919077	1151.870662	-443.751761	1042.930029	242.692565	-296.666284	
